<?xml version="1.0" encoding="UTF-8" standalone="no"?>
<svg xmlns="http://www.w3.org/2000/svg" viewBox="0 0 16 16">
  <path fill="#000000" d="M 5 1 C 2.7840022 1 1 2.7840022 1 5 L 1 11 C 1 13.215998 2.7840022 15 5 15 L 11 15 C 13.215998 15 15 13.215998 15 11 L 15 5 C 15 2.7840022 13.215998 1 11 1 L 5 1 z M 7 4 L 8 4 L 8 6 L 10 6 L 10 7 L 8 7 C 8.0038116 8.2410693 7.9919926 8.4817684 8.0058594 9.7226562 C 8.043258 10.093883 8.050803 10.549975 8.3691406 10.794922 C 8.8618074 11.084785 9.4554925 10.997 10 11 L 10 12 C 9.499098 12.009772 8.9921733 12.030026 8.4960938 11.949219 C 7.8037924 11.830139 7.2552319 11.247135 7.1015625 10.5625 C 6.9396325 9.9077602 7.0187675 10.228187 7 9.5605469 L 7 7 L 5 7 L 5 6 L 7 6 L 7 4 z " />
</svg>